<?xml version="1.0" encoding="UTF-8"?><svg xmlns="http://www.w3.org/2000/svg" viewBox="0 0 165.87 165.87"><defs><style>.d{fill:#f47d20;}.e{fill:#333;}</style></defs><g id="a"/><g id="b"><g id="c"><g><rect class="d" width="165.87" height="165.87" rx="43.52" ry="43.52"/><g><path class="e" d="M107.35,119.14c1.36,.5,2.72-.65,2.52-2.07-1.7-11.91-13.11-21.12-26.94-21.12s-25.24,9.2-26.94,21.1c-.2,1.43,1.17,2.57,2.52,2.07l13.03-4.81c7.26-2.68,15.24-2.7,22.51-.04l13.29,4.86Z"/><g><ellipse class="e" cx="55.37" cy="73.58" rx="5.55" ry="9.36"/><ellipse class="e" cx="110.88" cy="73.58" rx="5.55" ry="9.36"/><path class="e" d="M61.66,66.78c-3.34-2.55-11.22-7.24-24.08-7.26-.65,0-1.28-.31-1.64-.85-.67-1-1.25-2.69,1-4,0,0,6.29-3.72,13.72-.86,0,0,8.2,4.1,11.5,9.36,.15,.23,.25,.49,.31,.76l.47,2.01c.18,.75-.67,1.3-1.28,.84Z"/><path class="e" d="M104.2,66.78c3.34-2.55,11.22-7.24,24.08-7.26,.65,0,1.28-.31,1.64-.85,.67-1,1.25-2.69-1-4,0,0-6.29-3.72-13.72-.86,0,0-8.2,4.1-11.5,9.36-.15,.23-.25,.49-.31,.76l-.47,2.01c-.18,.75,.67,1.3,1.28,.84Z"/></g></g></g></g></g></svg>