<?xml version="1.0" encoding="UTF-8"?><svg xmlns="http://www.w3.org/2000/svg" viewBox="0 0 170.47 170.47"><defs><style>.d{fill:#ef6421;}.e{fill:#303030;}.f{fill:#f16d24;}.g{fill:#f2824e;}.h{fill:#5e4939;}</style></defs><g id="a"/><g id="b"><g id="c"><g><g><circle class="f" cx="85.24" cy="85.24" r="85.24" transform="translate(-35.31 85.24) rotate(-45)"/><path class="d" d="M129.83,12.49c8.49,13.25,13.41,29.01,13.41,45.91,0,47.07-38.16,85.24-85.24,85.24-16.35,0-31.62-4.61-44.59-12.59,15.15,23.65,41.66,39.32,71.83,39.32,47.07,0,85.24-38.16,85.24-85.24,0-30.73-16.26-57.65-40.64-72.65Z"/><path class="g" d="M11.58,94.23C11.58,50.52,47.02,15.09,90.72,15.09c25.55,0,48.26,12.11,62.73,30.9C139.79,22.26,114.17,6.29,84.83,6.29,41.12,6.29,5.69,41.72,5.69,85.43c0,18.16,6.12,34.89,16.41,48.24-6.69-11.61-10.52-25.08-10.52-39.44Z"/></g><g><ellipse class="e" cx="53.83" cy="69.37" rx="6.28" ry="10.59"/><path class="e" d="M122.92,69.37c0,5.85-2.81,10.59-6.28,10.59s-6.28-4.74-6.28-10.59,2.81-10.59,6.28-10.59,6.28,4.74,6.28,10.59Z"/></g><path class="h" d="M120.17,123.12c2.2,2.13,5.71-.23,4.58-3.07-6.3-15.74-21.68-26.85-39.67-26.85s-32.86,10.75-39.34,26.07c-1.18,2.79,2.36,5.21,4.54,3.1,12.47-12.09,38.96-29.3,69.89,.75Z"/><g><rect class="e" x="55.1" y="34.48" width="8.08" height="26.97" transform="translate(-16.59 55.87) rotate(-45)"/><rect class="e" x="107.29" y="34.48" width="8.08" height="26.97" transform="translate(66.52 -64.67) rotate(45)"/></g></g></g></g></svg>