<?xml version="1.0" encoding="UTF-8"?><svg xmlns="http://www.w3.org/2000/svg" viewBox="0 0 165.87 165.87"><defs><style>.d{fill:#98d6e0;}.e{fill:#333;}</style></defs><g id="a"/><g id="b"><g id="c"><g><rect class="d" width="165.87" height="165.87" rx="44.02" ry="44.02"/><g><path class="e" d="M62.49,59.88c.74-.16,1.65-.25,2.13,.34,.24,.29,.3,.68,.32,1.06,.14,2.71-1.61,5.21-3.8,6.81-3.94,2.87-9.09,3.37-13.97,3.54-5.49,.19-11.32,0-15.95-2.93-1.9-1.2-3.6-3.01-3.88-5.24-.36-2.86,2.08-5.18,4.84-4.39,2.59,.74,4.7,2.43,7.42,3.06,7.69,1.77,15.4-.67,22.9-2.24Z"/><path class="e" d="M103.37,59.88c-.74-.16-1.65-.25-2.13,.34-.24,.29-.3,.68-.32,1.06-.14,2.71,1.61,5.21,3.8,6.81,3.94,2.87,9.09,3.37,13.97,3.54,5.49,.19,11.32,0,15.95-2.93,1.9-1.2,3.6-3.01,3.88-5.24,.36-2.86-2.07-5.18-4.84-4.39-2.59,.74-4.7,2.43-7.42,3.06-7.69,1.77-15.4-.67-22.9-2.24Z"/><path class="e" d="M60.47,97.53c20.14,2.01,40.16,2.25,60.39-1.14,5.22-.88,9.23,3.18,5.45,7.92-1.88,2.37-5.03,4.23-7.72,5.57-8.21,4.1-17.49,4.84-26.53,4.89-9.66,.05-19.4,.26-28.96-1.34-6.97-1.16-23.84-5.1-24.38-14.37-.26-4.51,8.18-3.13,10.64-2.81,3.71,.48,7.4,.91,11.1,1.27Z"/></g></g></g></g></svg>