<?xml version="1.0" encoding="UTF-8"?><svg xmlns="http://www.w3.org/2000/svg" viewBox="0 0 170.47 170.47"><defs><style>.d{fill:#f06669;}.e{fill:#ffd05d;}.f{fill:#7cc4e8;}.g{fill:#303030;}.h{fill:#fdc453;}.i{fill:#ffd77f;}.j{fill:#695342;}</style></defs><g id="a"/><g id="b"><g id="c"><g><g><circle class="e" cx="85.24" cy="85.24" r="85.24" transform="translate(-35.31 85.24) rotate(-45)"/><path class="h" d="M129.67,12.39c8.52,13.23,13.47,28.98,13.51,45.88,.1,47.07-37.98,85.32-85.05,85.42-16.35,.04-31.63-4.54-44.62-12.49,15.2,23.62,41.74,39.23,71.91,39.17,47.07-.1,85.15-38.35,85.05-85.42-.07-30.73-16.38-57.62-40.8-72.56Z"/><path class="i" d="M11.6,94.39c-.09-43.71,35.26-79.21,78.97-79.31,25.55-.06,48.29,12,62.8,30.76C139.65,22.15,114,6.23,84.66,6.29,40.96,6.39,5.6,41.9,5.7,85.6c.04,18.16,6.2,34.87,16.51,48.21-6.71-11.6-10.57-25.06-10.6-39.42Z"/></g><g><ellipse class="j" cx="85.24" cy="105.55" rx="15.39" ry="26.09"/><path class="d" d="M98.23,119.54c-11.23-6.17-20.37-2.67-25.66,.83,2.78,6.81,7.41,11.28,12.67,11.28s10.26-4.83,12.99-12.11Z"/></g><g><g><path class="f" d="M58.89,68.29l-22.43,14.29,.55,72.95c6.67,4.59,14.03,8.25,21.88,10.8V68.29Z"/><path class="f" d="M111.62,68.29l22.43,14.29-.55,72.95c-6.67,4.59-14.03,8.25-21.88,10.8V68.29Z"/></g><g><path class="g" d="M39.26,85.1c-1.08,0-2.14-.48-2.85-1.39-1.23-1.57-.94-3.84,.63-5.07l12.29-9.58-12.71-7.47c-1.72-1.01-2.29-3.23-1.28-4.95,1.01-1.72,3.23-2.29,4.95-1.28l17.29,10.17c1.03,.61,1.7,1.68,1.77,2.88,.08,1.19-.44,2.35-1.38,3.09l-16.49,12.85c-.66,.51-1.44,.76-2.22,.76Z"/><path class="g" d="M131.21,85.1c-.78,0-1.56-.25-2.22-.76l-16.49-12.85c-.94-.74-1.46-1.89-1.38-3.09,.08-1.19,.74-2.27,1.77-2.88l17.29-10.17c1.72-1.01,3.93-.44,4.95,1.28,1.01,1.72,.44,3.93-1.28,4.95l-12.71,7.47,12.29,9.58c1.57,1.23,1.86,3.5,.63,5.07-.71,.91-1.78,1.39-2.85,1.39Z"/></g></g></g></g></g></svg>