<?xml version="1.0" encoding="UTF-8"?><svg xmlns="http://www.w3.org/2000/svg" viewBox="0 0 170.47 170.47"><defs><style>.d{fill:#f06669;}.e{fill:#ffd05d;}.f{fill:#303030;}.g{fill:#fdc453;}.h{fill:#ffd77f;}.i{fill:#695342;}</style></defs><g id="a"/><g id="b"><g id="c"><g><g><circle class="e" cx="85.24" cy="85.24" r="85.24" transform="translate(-35.31 85.24) rotate(-45)"/><path class="g" d="M129.83,12.49c8.49,13.25,13.41,29.01,13.41,45.91,0,47.07-38.16,85.24-85.24,85.24-16.35,0-31.62-4.61-44.59-12.59,15.15,23.65,41.66,39.32,71.83,39.32,47.07,0,85.24-38.16,85.24-85.24,0-30.73-16.26-57.65-40.64-72.65Z"/><path class="h" d="M11.58,94.23C11.58,50.52,47.02,15.09,90.72,15.09c25.55,0,48.26,12.11,62.73,30.9C139.79,22.26,114.17,6.29,84.83,6.29,41.13,6.29,5.69,41.72,5.69,85.43c0,18.16,6.12,34.89,16.41,48.24-6.69-11.61-10.52-25.08-10.52-39.44Z"/></g><g><g><rect class="f" x="41.29" y="51.78" width="7.8" height="35.14" transform="translate(-35.8 52.27) rotate(-45)"/><rect class="f" x="41.29" y="51.78" width="7.8" height="35.14" transform="translate(62.27 -11.64) rotate(45)"/></g><g><rect class="f" x="121.38" y="51.78" width="7.8" height="35.14" transform="translate(-12.34 108.9) rotate(-45)"/><rect class="f" x="121.38" y="51.78" width="7.8" height="35.14" transform="translate(85.73 -68.28) rotate(45)"/></g></g><g><ellipse class="i" cx="85.24" cy="112.21" rx="15.39" ry="26.09"/><path class="d" d="M98.23,126.19c-11.23-6.17-20.37-2.67-25.66,.83,2.78,6.81,7.41,11.28,12.67,11.28s10.26-4.83,12.99-12.11Z"/></g></g></g></g></svg>