<?xml version="1.0" encoding="UTF-8"?><svg xmlns="http://www.w3.org/2000/svg" viewBox="0 0 476.36 511.01"><defs><style>.d{fill:#0f0f0f;}.e{fill:#da5b65;}.f{fill:#c3aea1;}.g{fill:#d0cece;}.h{fill:#bf364b;}.i{fill:#ffce3a;}.j{fill:#111;}.k{fill:#e7b733;}.l{fill:#020607;}.m{fill:#fff1ea;}.n{fill:#4b4b64;}.o{fill:#696b8f;}.p{fill:#050606;}.q{fill:#191919;}</style></defs><g id="a"/><g id="b"><g id="c"><path class="p" d="M48.03,0c118,0,236,0,354,0,5.55,2.33,11.47,4.06,16.59,7.12,10.81,6.45,16.84,16.58,19.61,28.86,4.03,0,7.85,0,11.68,0,18.04,0,26.41,8.41,26.42,26.57,0,24.44-.05,48.89,.03,73.33,.02,7.54-.1,14.96-4.56,19.73,1.69,5.67,4.14,10.16,4.19,14.69,.34,28.76,.41,57.53,.02,86.29-.16,11.91-9.82,20.55-21.79,20.82-4.95,.12-9.91,.02-15.27,.02,0,2.19,0,3.97,0,5.75,0,33.42,0,66.85,0,100.27,0,7-1.28,8.74-7.77,10.85-6.88-2.57-7.36-3.29-7.36-11.57,0-111.24,0-222.48,0-333.72,0-22.88-11.1-34.04-33.84-34.04-85.3,0-170.6,0-255.9,0h-5.92c0,29.85-.1,58.93,.09,88.02,.04,5.57-1.51,9.37-7.18,10.82-6.54-2-7.98-3.86-7.98-10.69-.02-27.45,0-54.89,0-82.34v-5.76c-20.06,0-39.68-.1-59.3,.08-3.84,.04-5.9,2.59-5.86,6.65,.07,6.82,.01,13.64,.01,20.46,0,4.08,0,8.16,0,12.15,21.97,1.95,31.98,10.07,32.33,25.67,.35,15.77-9.47,24.15-31.96,27.17v34.5c20.08,1.17,30.88,9.57,31.87,24.32,.45,6.8-1.41,12.73-5.58,18.08-6.72,8.62-16.12,10.38-26.66,9.97v35.08c21.76,2.17,31.59,9.95,32.28,25.06,.3,6.57-1.48,12.4-5.64,17.57-6.82,8.47-16.15,10.32-26.28,9.72v35.07c22.26,2.56,31.4,9.97,31.98,25.63,.23,6.23-1.55,11.78-5.35,16.7-6.77,8.77-16.42,10.44-26.7,10.32v34.63c21.83,2.53,31.23,9.99,32,25.09,.33,6.42-1.46,12.06-5.36,17.16-6.74,8.82-16.19,10.84-26.91,10.2,0,11.2-.05,21.82,.02,32.44,.03,5.13,2.1,7.21,7.31,7.26,9.83,.1,19.67,.03,29.5,.03,9.29,0,18.58,0,28.31,0v-6.3c0-76.02,0-152.03,0-228.05,0-40.92,0-81.84,0-122.76,0-6.95,1.81-9.24,8.01-10.43,6.04,1.77,7.07,3.36,7.07,11.15,0,116.7,0,233.41,0,350.11v6.05c1.26,.09,2.06,.2,2.86,.2,87.78,0,175.57,.05,263.35-.13,4.49,0,9.36-1.21,13.41-3.17,11.57-5.61,15.99-15.73,16-28.13,.01-15.46-.04-30.92,.03-46.38,.03-6.05,1.57-7.84,7.42-9.33,5.84,1.35,7.67,3.56,7.69,9.72,.05,15.8,.11,31.6-.05,47.39-.04,3.95-.46,8.01-1.49,11.8-5.67,20.74-22.03,33.18-43.53,33.2-48.49,.05-96.97,.02-145.46,.02-64.48,0-128.97,.01-193.45-.01-12.88,0-21.28-7.79-22.17-20.6-.31-4.47-.13-8.97-.14-13.46-.02-6.76,0-13.53,0-20.2-21.63-2.03-31.74-9.79-32.56-24.36-.37-6.58,1.3-12.5,5.27-17.71,6.8-8.93,16.49-10.94,27.02-10.47v-34.71C10.72,367.19,.69,359.35,.05,344.56c-.28-6.58,1.53-12.4,5.54-17.63,6.77-8.85,16.45-10.37,26.69-10.2v-35.05c-20.58-1.33-31.13-9.22-32.18-23.72-.47-6.55,1.05-12.52,4.95-17.8,6.8-9.21,16.53-11.43,27.57-10.62,0-11.21,0-21.83,0-32.45,0-.8-.13-1.59-.24-2.81-8.14-.11-16.1-.46-22.63-6.01C3.11,182.65-.21,175.62,.05,166.89c.44-15.12,10.39-23,32.23-25.38v-34.52C11.92,105.54,1.42,97.8,.13,83.56c-.59-6.53,.85-12.52,4.63-17.91,6.73-9.59,16.73-11.59,27.86-11.11,0-10.93,.06-21.22-.02-31.51-.06-8.18,2.66-14.95,9.61-19.65C44.07,2.13,46.09,1.12,48.03,0ZM460.94,187.65c.05-5.28,.19-10.57,.12-15.85-.05-4.51-2.45-7.13-7-7.29-4.9-.17-9.81-.04-14.97-.04v97.93c5.11,0,9.75,.18,14.38-.05,4.99-.25,7.61-2.99,7.61-7.97,.01-22.25-.08-44.49-.14-66.74Zm-21.77-113.72v74.92c5.47,0,10.6,.23,15.7-.07,4.14-.24,6.19-3.05,6.18-7.06-.01-22.6-.11-45.19-.18-67.79,.07-4.98,.15-9.95,.2-14.93,.05-4.61-2.47-7.33-6.82-7.69-4.9-.41-9.86-.1-15.09-.1v22.72Zm-399.09-4.07c-4.48,0-8.97,0-13.45,0-.33,0-.67-.01-1,.02-5.52,.49-10.18,5.07-10.44,10.25-.22,4.45,3.31,10.28,7.48,10.48,11.04,.53,22.14,.86,33.16,.24,6.21-.35,9.64-5.48,9.18-10.89-.5-5.93-4.95-9.91-11.48-10.08-4.48-.11-8.97-.02-13.45-.02Zm-.25,371.27c4.82,0,9.64,.17,14.45-.04,5.93-.26,10.11-4.23,10.72-9.79,.58-5.35-2.9-10.7-8.92-11.1-10.35-.7-20.81-.64-31.17-.05-6.25,.35-10.16,5.61-9.68,10.97,.52,5.78,5.23,9.88,11.65,10.01,4.32,.09,8.64,.02,12.95,0Zm.53-174.25l.03-.41c3.99,0,7.98,0,11.97,0,.33,0,.67,.01,1-.01,6.68-.5,11.15-4.39,11.65-10.15,.48-5.45-3.31-10.95-9.59-11.28-10.55-.56-21.2-.22-31.75,.53-5.16,.37-8.48,5.35-8.35,10.14,.13,4.74,3.28,9,8.25,9.8,5.53,.89,11.19,.96,16.8,1.39Zm-.33,86.49v-.02c4.98,0,9.97,.09,14.95-.02,5.62-.12,9.76-4.18,10.03-9.61,.27-5.41-3.94-11.1-9.13-11.26-10.29-.31-20.61-.33-30.9,0-5.39,.17-10.1,5.85-9.79,10.75,.35,5.69,4.93,10.03,10.88,10.14,4.65,.09,9.3,.02,13.96,.02Zm.26-174.69c4.5,0,8.99,.05,13.49-.01,6.52-.1,11.18-4.62,11.25-10.79,.06-5.54-4.93-10.18-11.22-10.23-9.16-.08-18.32-.08-27.47,0-6.22,.05-11.08,4.69-11.16,10.42-.08,5.55,4.91,10.39,11.14,10.58,4.66,.14,9.32,.03,13.98,.03Z"/><path class="o" d="M431.17,394.3c.02,4.86,.03,9.71,.05,14.57-5.86,1.5-7.4,3.29-7.42,9.33-.07,15.46-.02,30.92-.03,46.38,0,12.39-4.43,22.52-16,28.13-4.05,1.96-8.91,3.16-13.41,3.17-87.78,.18-175.57,.14-263.35,.13-.8,0-1.6-.11-2.86-.2v-6.05c0-116.7,0-233.41,0-350.11,0-7.78-1.03-9.38-7.07-11.15,0-4.9-.02-9.79-.03-14.69,5.67-1.44,7.22-5.24,7.18-10.82-.19-29.09-.09-58.17-.09-88.02h5.92c85.3,0,170.6,0,255.9,0,22.74,0,33.84,11.16,33.84,34.04,0,111.24,0,222.48,0,333.72,0,8.28,.47,9,7.36,11.57Zm-155.4-154.82c27.49,0,54.99,.06,82.48-.02,16.8-.05,27.75-11.09,27.76-27.89,.04-36.92,.04-73.84,0-110.76-.02-16.75-10.95-27.8-27.84-27.83-54.82-.09-109.64-.09-164.47,0-16.91,.03-27.67,11.05-27.67,27.91-.02,36.42,.43,72.85-.2,109.26-.28,16.46,10.92,29.75,29.46,29.44,26.82-.45,53.65-.12,80.48-.12Z"/><path class="n" d="M121.06,113.81c0,4.9,.02,9.79,.03,14.69-6.2,1.18-8.01,3.47-8.01,10.43-.01,40.92,0,81.84,0,122.76,0,76.02,0,152.03,0,228.05v6.3c-9.73,0-19.02,0-28.31,0-9.83,0-19.67,.07-29.5-.03-5.22-.05-7.28-2.13-7.31-7.26-.07-10.62-.02-21.24-.02-32.44,10.72,.64,20.17-1.38,26.91-10.2,3.9-5.1,5.69-10.75,5.36-17.16-.77-15.1-10.18-22.56-32-25.09v-34.63c10.28,.13,19.94-1.55,26.7-10.32,3.8-4.93,5.59-10.47,5.35-16.7-.58-15.66-9.72-23.07-31.98-25.63v-35.07c10.13,.61,19.46-1.24,26.28-9.72,4.16-5.17,5.94-10.99,5.64-17.57-.69-15.11-10.52-22.89-32.28-25.06v-35.08c10.53,.41,19.94-1.36,26.66-9.97,4.17-5.35,6.03-11.28,5.58-18.08-.98-14.75-11.79-23.15-31.87-24.32v-34.5c22.49-3.03,32.31-11.4,31.96-27.17-.35-15.59-10.36-23.72-32.33-25.67,0-3.99,0-8.07,0-12.15,0-6.82,.06-13.64-.01-20.46-.04-4.05,2.03-6.61,5.86-6.65,19.62-.18,39.24-.08,59.3-.08v5.76c0,27.45,0,54.89,0,82.34,0,6.83,1.44,8.69,7.98,10.69Z"/><path class="e" d="M460.88,73.93c.07,22.6,.17,45.19,.18,67.79,0,4-2.04,6.81-6.18,7.06-5.1,.3-10.23,.07-15.7,.07,0-25.18,0-50.05,0-74.92,7.24,0,14.47,0,21.71,0Z"/><path class="i" d="M460.94,187.65c.06,22.25,.15,44.49,.14,66.74,0,4.98-2.62,7.72-7.61,7.97-4.62,.23-9.26,.05-14.38,.05v-74.76c7.28,0,14.57,0,21.85,0Z"/><path class="f" d="M40.08,69.86c4.48,0,8.97-.09,13.45,.02,6.53,.17,10.98,4.15,11.48,10.08,.46,5.41-2.97,10.54-9.18,10.89-11.02,.62-22.12,.29-33.16-.24-4.17-.2-7.7-6.04-7.48-10.48,.26-5.18,4.92-9.76,10.44-10.25,.33-.03,.66-.02,1-.02,4.48,0,8.97,0,13.45,0Z"/><path class="f" d="M39.83,441.14c-4.32,0-8.64,.08-12.95-.01-6.42-.13-11.13-4.23-11.65-10.01-.48-5.36,3.43-10.62,9.68-10.97,10.37-.58,20.82-.65,31.17,.05,6.02,.41,9.51,5.75,8.92,11.1-.61,5.56-4.79,9.53-10.72,9.79-4.81,.21-9.63,.04-14.45,.05Z"/><path class="f" d="M40.37,266.88c-5.6-.43-11.27-.5-16.8-1.39-4.97-.8-8.12-5.06-8.25-9.8-.13-4.79,3.19-9.77,8.35-10.14,10.55-.75,21.2-1.08,31.75-.53,6.28,.33,10.07,5.83,9.59,11.28-.5,5.76-4.97,9.66-11.65,10.15-.33,.02-.66,.01-1,.01-3.99,0-7.98,0-11.97,0l-.03,.41Z"/><path class="f" d="M40.04,353.37c-4.65,0-9.31,.07-13.96-.02-5.94-.11-10.53-4.45-10.88-10.14-.3-4.9,4.4-10.57,9.79-10.75,10.29-.33,20.61-.32,30.9,0,5.18,.16,9.4,5.85,9.13,11.26-.27,5.43-4.41,9.49-10.03,9.61-4.98,.11-9.97,.02-14.95,.02v.02Z"/><path class="f" d="M40.29,178.68c-4.66,0-9.33,.11-13.98-.03-6.23-.19-11.22-5.03-11.14-10.58,.08-5.73,4.94-10.37,11.16-10.42,9.16-.08,18.31-.08,27.47,0,6.3,.05,11.28,4.69,11.22,10.23-.06,6.18-4.73,10.7-11.25,10.79-4.49,.07-8.99,.01-13.49,.01Z"/><path class="k" d="M460.94,187.65c-7.28,0-14.57,0-21.85,0v-23.18c5.16,0,10.07-.13,14.97,.04,4.55,.16,6.95,2.78,7,7.29,.06,5.28-.07,10.56-.12,15.85Z"/><path class="h" d="M460.88,73.93c-7.24,0-14.47,0-21.71,0,0-7.43,0-14.85,0-22.72,5.23,0,10.19-.32,15.09,.1,4.35,.37,6.87,3.09,6.82,7.69-.06,4.98-.13,9.95-.2,14.93Z"/><path class="l" d="M275.77,239.49c-26.83,0-53.66-.33-80.48,.12-18.54,.31-29.74-12.98-29.46-29.44,.63-36.41,.18-72.84,.2-109.26,0-16.86,10.76-27.88,27.67-27.91,54.82-.09,109.64-.09,164.47,0,16.89,.03,27.82,11.08,27.84,27.83,.04,36.92,.04,73.84,0,110.76-.02,16.8-10.96,27.84-27.76,27.89-27.49,.08-54.99,.02-82.48,.02Zm84.29-151.23c-.99-.08-1.98-.23-2.97-.23-52.37-.01-104.73-.01-157.1,0-.99,0-1.98,.15-2.97,.22-11.59-.8-16,3.22-16,14.62,0,35.76,0,71.52,0,107.29,0,10.55,4.58,14.8,15.06,14.04,.99,.08,1.98,.23,2.97,.23,52.86,.01,105.73,.01,158.59,0,1.14,0,2.28-.28,3.42-.43l1.09-.39c6.17-1.37,8.82-4.94,8.84-12.32,.05-22.28,.02-44.57,.02-66.85,0-14.47,.04-28.93-.02-43.4-.03-7.3-2.82-10.98-8.94-12.23l-1.98-.57Z"/><path class="m" d="M361.07,224.01c-1.14,.15-2.28,.43-3.42,.43-52.86,.02-105.73,.02-158.59,0-.99,0-1.98-.15-2.97-.23-.7-6.35-1.96-12.7-2-19.05-.2-35.38-.18-70.77,.04-106.15,.02-3.59,1.89-7.17,2.9-10.75,.99-.08,1.98-.22,2.97-.22,52.37-.01,104.73-.01,157.1,0,.99,0,1.98,.15,2.97,.23l1.98,.57c6.13,1.25,8.91,4.93,8.94,12.23,.06,14.47,.02,28.93,.02,43.4,0,22.28,.03,44.57-.02,66.85-.01,7.38-2.66,10.94-8.84,12.32-.36,.13-.72,.26-1.09,.39Zm-85.14-51.24c8.12,0,15.8-3.16,21.05-8.68,3.49-3.67,3.74-7.88,.66-11.08-2.93-3.04-6.8-3.03-10.71,.02-8.41,6.57-13.59,6.58-21.78,.06-4.04-3.21-8.19-3.14-11.06,.2-2.94,3.42-2.56,7.33,1.21,11.05,5.71,5.62,12.61,8.43,20.63,8.42Zm73.97-19.24c-.21-2.78-.25-5.11-.59-7.39-.63-4.21-3.22-6.5-7.48-6.39-4.27,.12-6.84,2.62-7.06,6.82-.24,4.62-.17,9.28,.19,13.88,.31,3.92,3.31,5.83,6.83,5.98,3.57,.16,6.47-1.71,7.28-5.48,.55-2.57,.6-5.24,.82-7.43Zm-132.73-.54h.06c0-2.15,.13-4.32-.03-6.46-.3-4.04-2.7-6.37-6.61-6.75-3.95-.39-7.19,1.46-7.6,5.46-.54,5.19-.5,10.53,.02,15.73,.38,3.77,3.63,5.66,7.2,5.45,3.74-.22,6.61-2.29,6.93-6.48,.17-2.3,.03-4.63,.03-6.95Z"/><path class="f" d="M197.03,88.25c-1.01,3.58-2.88,7.16-2.9,10.75-.22,35.38-.24,70.77-.04,106.15,.04,6.35,1.3,12.7,2,19.05-10.48,.76-15.06-3.49-15.06-14.04-.01-35.76,0-71.52,0-107.29,0-11.4,4.41-15.42,16-14.62Z"/><path class="g" d="M362.04,88.82l-1.98-.57,1.98,.57Z"/><path class="g" d="M361.07,224.01c.36-.13,.72-.26,1.09-.39l-1.09,.39Z"/><path class="d" d="M275.93,172.77c-8.03,0-14.92-2.81-20.63-8.42-3.77-3.71-4.15-7.63-1.21-11.05,2.87-3.34,7.02-3.41,11.06-.2,8.19,6.52,13.37,6.5,21.78-.06,3.92-3.06,7.78-3.07,10.71-.02,3.08,3.2,2.83,7.41-.66,11.08-5.25,5.52-12.93,8.68-21.05,8.68Z"/><path class="q" d="M349.9,153.53c-.23,2.18-.27,4.86-.82,7.43-.81,3.77-3.71,5.64-7.28,5.48-3.52-.15-6.53-2.06-6.83-5.98-.36-4.61-.43-9.27-.19-13.88,.22-4.2,2.79-6.71,7.06-6.82,4.25-.12,6.84,2.17,7.48,6.39,.34,2.28,.38,4.61,.59,7.39Z"/><path class="j" d="M217.17,152.99c0,2.32,.14,4.65-.03,6.95-.32,4.19-3.19,6.27-6.93,6.48-3.57,.21-6.82-1.68-7.2-5.45-.52-5.2-.56-10.53-.02-15.73,.42-4,3.65-5.84,7.6-5.46,3.91,.38,6.31,2.71,6.61,6.75,.16,2.14,.03,4.3,.03,6.46h-.06Z"/></g></g></svg>